<?xml version="1.0" encoding="utf-8"?>
<!-- Generator: Adobe Illustrator 18.0.0, SVG Export Plug-In . SVG Version: 6.00 Build 0)  -->
<!DOCTYPE svg PUBLIC "-//W3C//DTD SVG 1.1//EN" "http://www.w3.org/Graphics/SVG/1.1/DTD/svg11.dtd">
<svg version="1.1" id="color" xmlns="http://www.w3.org/2000/svg" xmlns:xlink="http://www.w3.org/1999/xlink" x="0px" y="0px"
	 viewBox="0 0 100 100" enable-background="new 0 0 100 100" xml:space="preserve">
<path fill="#333333" d="M74.6,35h-7.3l1.3-8.3c0-0.9-0.7-1.7-1.7-1.7h-6.7c-0.9,0-1.7,0.7-1.7,1.7L57.3,35h-10l1.3-8.3
	c0-0.9-0.7-1.7-1.7-1.7h-6.7c-0.9,0-1.7,0.7-1.7,1.7L37.3,35h-9.4c-0.9,0-1.7,0.7-1.7,1.7v6.7c0,0.9,0.7,1.7,1.7,1.7h7.7l-1.6,10
	h-8.6c-0.9,0-1.7,0.7-1.7,1.7v6.7c0,0.9,0.7,1.7,1.7,1.7h7l-1.3,8.3c0,0.9,0.7,1.7,1.7,1.7h6.7c0.9,0,1.7-0.7,1.7-1.7l1.3-8.3h10
	l-1.3,8.3c0,0.9,0.7,1.7,1.7,1.7h6.7c0.9,0,1.7-0.7,1.7-1.7l1.3-8.3h9.6c0.9,0,1.7-0.7,1.7-1.7v-6.7c0-0.9-0.7-1.7-1.7-1.7h-8
	l1.6-10h8.9c0.9,0,1.7-0.7,1.7-1.7v-6.7C76.3,35.7,75.5,35,74.6,35z M54.1,55h-10l1.6-10h10L54.1,55z"/>
</svg>
