<?xml version="1.0" encoding="utf-8"?>
<!-- Generator: Adobe Illustrator 18.0.0, SVG Export Plug-In . SVG Version: 6.00 Build 0)  -->
<!DOCTYPE svg PUBLIC "-//W3C//DTD SVG 1.1//EN" "http://www.w3.org/Graphics/SVG/1.1/DTD/svg11.dtd">
<svg version="1.1" id="color" xmlns="http://www.w3.org/2000/svg" xmlns:xlink="http://www.w3.org/1999/xlink" x="0px" y="0px"
	 viewBox="0 0 100 100" enable-background="new 0 0 100 100" xml:space="preserve">
<g>
	<path fill="#333333" d="M74.1,24.4l-6.7,0c-0.9,0-1.7,0.7-1.7,1.7l0,5.7c-9.8-8.6-24.7-8.2-34.1,1.2c-9.8,9.8-9.8,25.6,0,35.4
		c9.8,9.8,25.6,9.8,35.4,0c0.7-0.7,0.7-1.7,0-2.4l-4.7-4.7c-0.7-0.7-1.7-0.7-2.4,0C54,67,44.5,67,38.7,61.2s-5.8-15.4,0-21.2
		s15.4-5.8,21.2,0l8.2,8.6c0.7,0.7,1.7,0.7,2.4,0l4.6-4.6c0.4-0.3,0.6-0.8,0.6-1.3l0-16.7C75.7,25.2,75,24.4,74.1,24.4z"/>
	<circle fill="#333333" cx="50.2" cy="50.6" r="5.2"/>
</g>
</svg>
