<?xml version="1.0" encoding="utf-8"?>
<!-- Generator: Adobe Illustrator 18.0.0, SVG Export Plug-In . SVG Version: 6.00 Build 0)  -->
<!DOCTYPE svg PUBLIC "-//W3C//DTD SVG 1.1//EN" "http://www.w3.org/Graphics/SVG/1.1/DTD/svg11.dtd">
<svg version="1.1" id="color" xmlns="http://www.w3.org/2000/svg" xmlns:xlink="http://www.w3.org/1999/xlink" x="0px" y="0px"
	 viewBox="0 0 100 100" enable-background="new 0 0 100 100" xml:space="preserve">
<path fill="#333333" d="M54.4,47.1c1.6,2.4,0.9,5.7-1.5,7.3s-5.7,0.9-7.3-1.5c-1.6-2.4-0.9-5.7,1.5-7.3S52.8,44.7,54.4,47.1z
	 M25.6,52.9c1.6,2.4,4.8,3.1,7.3,1.5c2.4-1.6,3.1-4.8,1.5-7.3s-4.8-3.1-7.3-1.5S24,50.5,25.6,52.9z M65.6,52.9
	c1.6,2.4,4.8,3.1,7.3,1.5s3.1-4.8,1.5-7.3s-4.8-3.1-7.3-1.5C64.7,47.2,64,50.5,65.6,52.9z M47.1,25.6c-2.4,1.6-3.1,4.8-1.5,7.3
	c1.6,2.4,4.8,3.1,7.3,1.5s3.1-4.8,1.5-7.3C52.8,24.7,49.5,24,47.1,25.6z M25.6,32.9c1.6,2.4,4.8,3.1,7.3,1.5
	c2.4-1.6,3.1-4.8,1.5-7.3s-4.8-3.1-7.3-1.5S24,30.5,25.6,32.9z M65.6,32.9c1.6,2.4,4.8,3.1,7.3,1.5s3.1-4.8,1.5-7.3
	s-4.8-3.1-7.3-1.5C64.7,27.2,64,30.5,65.6,32.9z M47.1,65.6c-2.4,1.6-3.1,4.8-1.5,7.3c1.6,2.4,4.8,3.1,7.3,1.5
	c2.4-1.6,3.1-4.8,1.5-7.3C52.8,64.7,49.5,64,47.1,65.6z M25.6,72.9c1.6,2.4,4.8,3.1,7.3,1.5c2.4-1.6,3.1-4.8,1.5-7.3
	c-1.6-2.4-4.8-3.1-7.3-1.5C24.7,67.2,24,70.5,25.6,72.9z M65.6,72.9c1.6,2.4,4.8,3.1,7.3,1.5c2.4-1.6,3.1-4.8,1.5-7.3
	c-1.6-2.4-4.8-3.1-7.3-1.5C64.7,67.2,64,70.5,65.6,72.9z"/>
</svg>
