<?xml version="1.0" encoding="utf-8"?>
<!-- Generator: Adobe Illustrator 18.0.0, SVG Export Plug-In . SVG Version: 6.00 Build 0)  -->
<!DOCTYPE svg PUBLIC "-//W3C//DTD SVG 1.1//EN" "http://www.w3.org/Graphics/SVG/1.1/DTD/svg11.dtd">
<svg version="1.1" id="color" xmlns="http://www.w3.org/2000/svg" xmlns:xlink="http://www.w3.org/1999/xlink" x="0px" y="0px"
	 viewBox="0 0 100 100" enable-background="new 0 0 100 100" xml:space="preserve">
<g>
	<path fill="#333333" d="M66.9,64.2c0,0.9,0.7,1.7,1.7,1.7h6.7c0.9,0,1.7-0.7,1.7-1.7v-0.8c0-8.3-6.7-15-15-15c-1.8,0-3.5,0.3-5,0.9
		c-0.4-7.9-7-14.2-15-14.2c-1.8,0-3.4,0.3-5,0.9V35c0-4.1-1.7-7.9-4.4-10.6c-0.9-0.9-2-1.7-3.1-2.4l-0.7-0.4
		c-0.8-0.5-1.8-0.2-2.3,0.6L23.1,28c-0.5,0.8-0.2,1.8,0.6,2.3l0.7,0.4l0,0c0.4,0.2,0.7,0.5,1,0.8c0.9,0.9,1.5,2.2,1.5,3.5v15v26.7
		c0,0.2,0,0.4,0.1,0.6c0,0.1,0.1,0.2,0.2,0.3c0,0,0.1,0.1,0.1,0.1c0.3,0.3,0.7,0.6,1.1,0.6c0.1,0,0.1,0,0.2,0h6.7c0.1,0,0.1,0,0.2,0
		c0.4,0,0.8-0.3,1.1-0.6c0,0,0.1-0.1,0.1-0.1c0.1-0.1,0.1-0.2,0.2-0.3c0.1-0.2,0.1-0.4,0.1-0.6V50c0-2.8,2.2-5,5-5c2.8,0,5,2.2,5,5
		v13.3v13.3c0,0.2,0,0.4,0.1,0.6c0,0.1,0.1,0.2,0.2,0.3c0,0,0.1,0.1,0.1,0.1c0.3,0.3,0.7,0.6,1.1,0.6c0.1,0,0.1,0,0.2,0h6.7
		c0.1,0,0.1,0,0.2,0c0.4,0,0.8-0.3,1.1-0.6c0,0,0.1-0.1,0.1-0.1c0.1-0.1,0.1-0.2,0.2-0.3c0.1-0.2,0.1-0.4,0.1-0.6V63.4
		c0-2.8,2.2-5,5-5c2.8,0,5,2.2,5,5V64.2z"/>
	<circle fill="#333333" cx="71.9" cy="73.4" r="5.2"/>
</g>
</svg>
