<?xml version="1.0" encoding="utf-8"?>
<!-- Generator: Adobe Illustrator 18.0.0, SVG Export Plug-In . SVG Version: 6.00 Build 0)  -->
<!DOCTYPE svg PUBLIC "-//W3C//DTD SVG 1.1//EN" "http://www.w3.org/Graphics/SVG/1.1/DTD/svg11.dtd">
<svg version="1.1" id="color" xmlns="http://www.w3.org/2000/svg" xmlns:xlink="http://www.w3.org/1999/xlink" x="0px" y="0px"
	 viewBox="0 0 100 100" enable-background="new 0 0 100 100" xml:space="preserve">
<g>
	<path fill="#333333" d="M50,54.7c-2.8,2.2-6.3,3.4-10.1,3.4c-2.3,0-4.4-0.5-6.4-1.3c-0.1,0.5-0.1,1.1-0.1,1.6
		C33.4,67.6,40.9,75,50,75c9.1,0,16.6-7.4,16.6-16.6c0-0.5,0-1.1-0.1-1.6c-2,0.8-4.1,1.3-6.4,1.3C56.3,58.1,52.8,56.8,50,54.7"/>
	<path fill="#333333" d="M60.1,25c-3.8,0-7.3,1.3-10.1,3.4c3.9,3,6.5,7.8,6.5,13.1l0,0l0,0l0,0l0,0l0,0l0,0c0,0.5,0,1.1-0.1,1.6
		c5.5,2.3,9.5,7.5,10.1,13.7l0,0l0,0c6-2.5,10.2-8.4,10.2-15.3C76.7,32.4,69.2,25,60.1,25"/>
	<path fill="#333333" d="M39.9,25c-9.1,0-16.6,7.4-16.6,16.6c0,6.9,4.2,12.8,10.2,15.3l0,0l0,0c0.6-6.2,4.6-11.4,10.1-13.7
		c-0.1-0.5-0.1-1.1-0.1-1.6l0,0l0,0l0,0l0,0l0,0l0,0c0-5.3,2.5-10.1,6.5-13.1C47.2,26.3,43.7,25,39.9,25"/>
	<path fill="#333333" d="M50,41.9c-2.3,0-4.4,0.5-6.4,1.3c0.5,4.7,2.9,8.8,6.4,11.5c3.5-2.7,5.9-6.8,6.4-11.5
		C54.4,42.3,52.3,41.9,50,41.9"/>
</g>
</svg>
