<?xml version="1.0" encoding="utf-8"?>
<!-- Generator: Adobe Illustrator 18.0.0, SVG Export Plug-In . SVG Version: 6.00 Build 0)  -->
<!DOCTYPE svg PUBLIC "-//W3C//DTD SVG 1.1//EN" "http://www.w3.org/Graphics/SVG/1.1/DTD/svg11.dtd">
<svg version="1.1" id="color" xmlns="http://www.w3.org/2000/svg" xmlns:xlink="http://www.w3.org/1999/xlink" x="0px" y="0px"
	 viewBox="0 0 100 100" enable-background="new 0 0 100 100" xml:space="preserve">
<path fill="#333333" d="M75.3,70.2v-6.7c0-0.9-0.7-1.7-1.7-1.7H48.2l15.5-16.2v5.6c0,0.9,0.7,1.7,1.7,1.7H72c0.9,0,1.7-0.7,1.7-1.7
	V34.6c0-0.6-0.3-1.1-0.8-1.4L68.7,29c-0.3-0.5-0.8-0.8-1.4-0.8H50.6c-0.9,0-1.7,0.7-1.7,1.7v6.7c0,0.9,0.7,1.7,1.7,1.7h5.9
	L25.1,69.6c-0.7,0.7-0.6,2.3,1,2.3h12.6h35C74.6,71.8,75.3,71.1,75.3,70.2z"/>
</svg>
