<?xml version="1.0" encoding="utf-8"?>
<!-- Generator: Adobe Illustrator 18.0.0, SVG Export Plug-In . SVG Version: 6.00 Build 0)  -->
<!DOCTYPE svg PUBLIC "-//W3C//DTD SVG 1.1//EN" "http://www.w3.org/Graphics/SVG/1.1/DTD/svg11.dtd">
<svg version="1.1" id="color" xmlns="http://www.w3.org/2000/svg" xmlns:xlink="http://www.w3.org/1999/xlink" x="0px" y="0px"
	 viewBox="0 0 100 100" enable-background="new 0 0 100 100" xml:space="preserve">
<g>
	<path fill="#333333" d="M74.4,45.5L62.6,33.7c-0.7-0.7-1.7-0.7-2.4,0l-4.7,4.7c-0.7,0.7-0.7,1.7,0,2.4l4.2,4.2H40l4.2-4.2
		c0.7-0.7,0.7-1.7,0-2.4l-4.7-4.7c-0.7-0.7-1.7-0.7-2.4,0L25.3,45.5c-0.4,0.4-0.5,0.9-0.5,1.4v6.3c-0.1,0.5,0.1,1,0.5,1.4l11.8,11.8
		c0.7,0.7,1.7,0.7,2.4,0l4.7-4.7c0.7-0.7,0.7-1.7,0-2.4L40,55h19.8l-4.2,4.2c-0.7,0.7-0.7,1.7,0,2.4l4.7,4.7c0.7,0.7,1.7,0.7,2.4,0
		l11.8-11.8c0.4-0.4,0.5-0.9,0.5-1.4v-6.3C74.9,46.4,74.8,45.9,74.4,45.5z"/>
	<circle fill="#333333" cx="83.9" cy="50" r="5.2"/>
	<circle fill="#333333" cx="16.1" cy="50" r="5.2"/>
</g>
</svg>
