<?xml version="1.0" encoding="utf-8"?>
<!-- Generator: Adobe Illustrator 18.0.0, SVG Export Plug-In . SVG Version: 6.00 Build 0)  -->
<!DOCTYPE svg PUBLIC "-//W3C//DTD SVG 1.1//EN" "http://www.w3.org/Graphics/SVG/1.1/DTD/svg11.dtd">
<svg version="1.1" id="color" xmlns="http://www.w3.org/2000/svg" xmlns:xlink="http://www.w3.org/1999/xlink" x="0px" y="0px"
	 viewBox="0 0 100 100" enable-background="new 0 0 100 100" xml:space="preserve">
<g>
	<path fill="#333333" d="M74.1,29.9l-4.1-4.1c-0.3-0.3-0.7-0.5-1.2-0.5h-15c-0.8,0-1.5,0.7-1.5,1.5v6c0,0.8,0.7,1.5,1.5,1.5h5.4
		l-6,6c-0.6,0.6-0.6,1.5,0,2.1l4.2,4.2c0.6,0.6,1.5,0.6,2.1,0l6-6v5.4c0,0.8,0.7,1.5,1.5,1.5h6c0.8,0,1.5-0.7,1.5-1.5v-15
		C74.7,30.6,74.5,30.2,74.1,29.9z"/>
	<path fill="#333333" d="M46.1,65.7h-5.4l6-6c0.6-0.6,0.6-1.5,0-2.1l-4.2-4.2c-0.6-0.6-1.5-0.6-2.1,0l-6,6v-5.4
		c0-0.8-0.7-1.5-1.5-1.5h-6c-0.8,0-1.5,0.7-1.5,1.5v15c0,0.5,0.2,0.9,0.5,1.2l4.1,4.1c0.3,0.3,0.7,0.5,1.2,0.5h15
		c0.8,0,1.5-0.7,1.5-1.5v-6C47.6,66.3,46.9,65.7,46.1,65.7z"/>
	<circle fill="#333333" cx="50" cy="50" r="4.7"/>
</g>
</svg>
