<?xml version="1.0" encoding="utf-8"?>
<!-- Generator: Adobe Illustrator 18.0.0, SVG Export Plug-In . SVG Version: 6.00 Build 0)  -->
<!DOCTYPE svg PUBLIC "-//W3C//DTD SVG 1.1//EN" "http://www.w3.org/Graphics/SVG/1.1/DTD/svg11.dtd">
<svg version="1.1" id="color" xmlns="http://www.w3.org/2000/svg" xmlns:xlink="http://www.w3.org/1999/xlink" x="0px" y="0px"
	 viewBox="0 0 100 100" enable-background="new 0 0 100 100" xml:space="preserve">
<g>
	<path fill="#333333" d="M74.2,30.5l-4.7-4.7c-0.3-0.3-0.8-0.5-1.2-0.5c0,0,0,0,0,0H51.6c-0.9,0-1.7,0.7-1.7,1.7v6.7
		c0,0.9,0.7,1.7,1.7,1.7h6L34.2,58.8c-0.7,0.7-0.7,1.7,0,2.4l4.7,4.7c0.7,0.7,1.7,0.7,2.4,0l23.5-23.5v6c0,0.9,0.7,1.7,1.7,1.7H73
		c0.9,0,1.7-0.7,1.7-1.7V31.7c0,0,0,0,0,0C74.7,31.3,74.6,30.8,74.2,30.5z"/>
	<circle fill="#333333" cx="30.5" cy="69.5" r="5.2"/>
</g>
</svg>
