<?xml version="1.0" encoding="utf-8"?>
<!-- Generator: Adobe Illustrator 18.0.0, SVG Export Plug-In . SVG Version: 6.00 Build 0)  -->
<!DOCTYPE svg PUBLIC "-//W3C//DTD SVG 1.1//EN" "http://www.w3.org/Graphics/SVG/1.1/DTD/svg11.dtd">
<svg version="1.1" id="color" xmlns="http://www.w3.org/2000/svg" xmlns:xlink="http://www.w3.org/1999/xlink" x="0px" y="0px"
	 viewBox="0 0 100 100" enable-background="new 0 0 100 100" xml:space="preserve">
<g>
	<path fill="#333333" d="M66.3,68.5l-4.7-4.7c-0.7-0.7-1.7-0.7-2.4,0L55,68V34.8c0-0.9-0.7-1.7-1.7-1.7h-6.7c-0.9,0-1.7,0.7-1.7,1.7
		V68l-4.2-4.2c-0.7-0.7-1.7-0.7-2.4,0l-4.7,4.7c-0.7,0.7-0.7,1.7,0,2.4l11.8,11.8c0.4,0.4,0.9,0.5,1.4,0.5h6.3
		c0.5,0.1,1-0.1,1.4-0.5l11.8-11.8C67,70.2,67,69.2,66.3,68.5z"/>
	<circle fill="#333333" cx="50" cy="22.1" r="5.2"/>
</g>
</svg>
