<?xml version="1.0" encoding="utf-8"?>
<!-- Generator: Adobe Illustrator 18.0.0, SVG Export Plug-In . SVG Version: 6.00 Build 0)  -->
<!DOCTYPE svg PUBLIC "-//W3C//DTD SVG 1.1//EN" "http://www.w3.org/Graphics/SVG/1.1/DTD/svg11.dtd">
<svg version="1.1" id="color" xmlns="http://www.w3.org/2000/svg" xmlns:xlink="http://www.w3.org/1999/xlink" x="0px" y="0px"
	 viewBox="0 0 100 100" enable-background="new 0 0 100 100" xml:space="preserve">
<path fill="#333333" d="M25,46L25,46c2.8,0,5,2.2,5,5v20.5c0,2.8-2.2,5-5,5h0c-2.8,0-5-2.2-5-5V51C20,48.2,22.2,46,25,46z
	 M32.5,37.5v34c0,2.8,2.2,5,5,5h0c2.8,0,5-2.2,5-5v-34c0-2.8-2.2-5-5-5h0C34.7,32.5,32.5,34.7,32.5,37.5z M45,49v22.5
	c0,2.8,2.2,5,5,5h0c2.8,0,5-2.2,5-5V49c0-2.8-2.2-5-5-5h0C47.2,44,45,46.2,45,49z M57.5,54v17.5c0,2.8,2.2,5,5,5h0c2.8,0,5-2.2,5-5
	V54c0-2.8-2.2-5-5-5h0C59.7,49,57.5,51.2,57.5,54z M70,42.2v29.3c0,2.8,2.2,5,5,5h0c2.8,0,5-2.2,5-5V42.2c0-2.8-2.2-5-5-5h0
	C72.2,37.2,70,39.5,70,42.2z"/>
</svg>
