<?xml version="1.0" encoding="utf-8"?>
<!-- Generator: Adobe Illustrator 18.0.0, SVG Export Plug-In . SVG Version: 6.00 Build 0)  -->
<!DOCTYPE svg PUBLIC "-//W3C//DTD SVG 1.1//EN" "http://www.w3.org/Graphics/SVG/1.1/DTD/svg11.dtd">
<svg version="1.1" id="color" xmlns="http://www.w3.org/2000/svg" xmlns:xlink="http://www.w3.org/1999/xlink" x="0px" y="0px"
	 viewBox="0 0 100 100" enable-background="new 0 0 100 100" xml:space="preserve">
<path fill="#333333" d="M74,24.4h-6.7c-0.9,0-1.7,0.7-1.7,1.7v5.7c-9.8-8.6-24.7-8.2-34.1,1.2c-9.8,9.8-9.8,25.6,0,35.4
	c9.8,9.8,25.6,9.8,35.4,0c0.7-0.7,0.7-1.7,0-2.4l-4.7-4.7c-0.7-0.7-1.7-0.7-2.4,0c-5.8,5.8-15.4,5.8-21.2,0s-5.8-15.4,0-21.2
	c5.5-5.5,14.4-5.8,20.3-0.9h-6.3c-0.9,0-1.7,0.7-1.7,1.7v6.7c0,0.9,0.7,1.7,1.7,1.7h16.7c0.5,0,1-0.3,1.3-0.6l4.4-4.4
	c0.4-0.3,0.6-0.8,0.6-1.3V26.1C75.7,25.1,75,24.4,74,24.4z"/>
</svg>
