<?xml version="1.0" encoding="utf-8"?>
<!-- Generator: Adobe Illustrator 18.0.0, SVG Export Plug-In . SVG Version: 6.00 Build 0)  -->
<!DOCTYPE svg PUBLIC "-//W3C//DTD SVG 1.1//EN" "http://www.w3.org/Graphics/SVG/1.1/DTD/svg11.dtd">
<svg version="1.1" id="color" xmlns="http://www.w3.org/2000/svg" xmlns:xlink="http://www.w3.org/1999/xlink" x="0px" y="0px"
	 viewBox="0 0 100 100" enable-background="new 0 0 100 100" xml:space="preserve">
<g>
	<path fill="#333333" d="M47.4,45.5L35.7,33.7C35,33,34,33,33.3,33.7l-4.7,4.7c-0.7,0.7-0.7,1.7,0,2.4l4.2,4.2h-8.2
		c-0.9,0-1.7,0.7-1.7,1.7v6.7c0,0.9,0.7,1.7,1.7,1.7h8.2l-4.2,4.2c-0.7,0.7-0.7,1.7,0,2.4l4.7,4.7c0.7,0.7,1.7,0.7,2.4,0l11.8-11.8
		c0.3-0.3,0.5-0.7,0.5-1.2v-6.7C48,46.2,47.8,45.8,47.4,45.5z"/>
	<path fill="#333333" d="M75.1,45h-8.2l4.2-4.2c0.7-0.7,0.7-1.7,0-2.4l-4.7-4.7c-0.7-0.7-1.7-0.7-2.4,0L52.3,45.5
		c-0.3,0.3-0.5,0.7-0.5,1.2v6.7c0,0.5,0.2,0.9,0.5,1.2L64,66.3c0.7,0.7,1.7,0.7,2.4,0l4.7-4.7c0.7-0.7,0.7-1.7,0-2.4L66.9,55h8.2
		c0.9,0,1.7-0.7,1.7-1.7v-6.7C76.8,45.7,76,45,75.1,45z"/>
	<circle fill="#333333" cx="83.9" cy="50" r="5.2"/>
	<circle fill="#333333" cx="16.1" cy="50" r="5.2"/>
</g>
</svg>
