<?xml version="1.0" encoding="utf-8"?>
<!-- Generator: Adobe Illustrator 18.0.0, SVG Export Plug-In . SVG Version: 6.00 Build 0)  -->
<!DOCTYPE svg PUBLIC "-//W3C//DTD SVG 1.1//EN" "http://www.w3.org/Graphics/SVG/1.1/DTD/svg11.dtd">
<svg version="1.1" id="Layer_1" xmlns="http://www.w3.org/2000/svg" xmlns:xlink="http://www.w3.org/1999/xlink" x="0px" y="0px"
	 viewBox="0 0 90 20" enable-background="new 0 0 90 20" xml:space="preserve">
<path fill="none" stroke="#333333" stroke-miterlimit="10" d="M3.1,18.6H16c1.1,0,2-0.9,2-2V3.7c0-1.1-0.9-2-2-2H3.1
	c-1.1,0-2,0.9-2,2v12.9C1.1,17.7,2,18.6,3.1,18.6z"/>
<path fill="none" stroke="#333333" stroke-miterlimit="10" d="M26.8,18.6h12.9c1.1,0,2-0.9,2-2V3.7c0-1.1-0.9-2-2-2H26.8
	c-1.1,0-2,0.9-2,2v12.9C24.8,17.7,25.6,18.6,26.8,18.6z"/>
<path fill="#333333" stroke="#333333" stroke-miterlimit="10" d="M50.4,18.6h12.9c1.1,0,2-0.9,2-2V3.7c0-1.1-0.9-2-2-2H50.4
	c-1.1,0-2,0.9-2,2v12.9C48.4,17.7,49.3,18.6,50.4,18.6z"/>
<path fill="none" stroke="#333333" stroke-miterlimit="10" d="M74,18.6h12.9c1.1,0,2-0.9,2-2V3.7c0-1.1-0.9-2-2-2H74
	c-1.1,0-2,0.9-2,2v12.9C72,17.7,72.9,18.6,74,18.6z"/>
</svg>
